<svg xmlns="http://www.w3.org/2000/svg" viewBox="0 0 1022 1815" width="1022" height="1815">
	<defs>
		<clipPath clipPathUnits="userSpaceOnUse" id="cp1">
			<path d="M-126 46.07L-1064.82 46.07C-1087.43 46.07 -1105.76 64.39 -1105.76 87L-1105.76 1819.71C-1105.76 1842.32 -1087.43 1860.64 -1064.82 1860.64L-126 1860.64C-103.39 1860.64 -85.06 1842.32 -85.06 1819.71L-85.06 87C-85.06 64.39 -103.39 46.07 -126 46.07" />
		</clipPath>
		<clipPath clipPathUnits="userSpaceOnUse" id="cp2">
			<path d="M1035.87 46.07L97.04 46.07C74.44 46.07 56.11 64.39 56.11 87L56.11 1819.71C56.11 1842.32 74.44 1860.64 97.04 1860.64L1035.87 1860.64C1058.48 1860.64 1076.8 1842.32 1076.8 1819.71L1076.8 87C1076.8 64.39 1058.48 46.07 1035.87 46.07Z" />
		</clipPath>
		<clipPath clipPathUnits="userSpaceOnUse" id="cp3">
			<path d="M-178.38 1814.6L-1117.2 1814.6C-1139.81 1814.6 -1158.14 1796.28 -1158.14 1773.67L-1158.14 40.96C-1158.14 18.36 -1139.81 0.03 -1117.2 0.03L-178.38 0.03C-155.77 0.03 -137.44 18.36 -137.44 40.96L-137.44 1773.67C-137.44 1796.28 -155.77 1814.6 -178.38 1814.6Z" />
		</clipPath>
		<clipPath clipPathUnits="userSpaceOnUse" id="cp4">
			<path d="M-863.97 595.81C-769.53 595.81 -692.96 672.37 -692.96 766.81C-692.96 861.25 -769.53 937.83 -863.97 937.83C-958.41 937.83 -1034.97 861.25 -1034.97 766.81C-1034.97 672.37 -958.41 595.81 -863.97 595.81ZM-715.3 766.81C-715.3 684.71 -781.86 618.15 -863.97 618.15C-946.07 618.15 -1012.64 684.71 -1012.64 766.81C-1012.64 848.92 -946.07 915.48 -863.97 915.48C-781.86 915.48 -715.3 848.92 -715.3 766.81Z" />
		</clipPath>
		<clipPath clipPathUnits="userSpaceOnUse" id="cp5">
			<path d="M-863.97 618.15C-946.07 618.15 -1012.64 684.71 -1012.64 766.81C-1012.64 848.92 -946.07 915.48 -863.97 915.48C-781.86 915.48 -715.3 848.92 -715.3 766.81C-715.3 684.71 -781.86 618.15 -863.97 618.15" />
		</clipPath>
		<clipPath clipPathUnits="userSpaceOnUse" id="cp6">
			<path d="M-763.34 1032.11C-763.34 1032.11 -427.34 873.41 -137.44 974.65L-137.44 1032.11L-763.34 1032.11Z" />
		</clipPath>
		<clipPath clipPathUnits="userSpaceOnUse" id="cp7">
			<path d="M-567.34 1032.11C-567.34 1032.11 -338.21 901.28 -137.44 897.43L-137.44 1032.11L-567.34 1032.11Z" />
		</clipPath>
		<clipPath clipPathUnits="userSpaceOnUse" id="cp8">
			<path d="M-567.34 1032.11L-763.34 1032.11C-763.34 1032.11 -575.37 1095.29 -359.32 1097C-476.62 1068.97 -567.34 1032.11 -567.34 1032.11Z" />
		</clipPath>
		<clipPath clipPathUnits="userSpaceOnUse" id="cp9">
			<path d="M-137.44 1073C-207.56 1090.44 -280.35 1097.04 -350.46 1097.04C-353.41 1097.04 -356.38 1097.03 -359.32 1097C-290.21 1113.52 -211.87 1126.96 -137.44 1127.97L-137.44 1073Z" />
		</clipPath>
		<clipPath clipPathUnits="userSpaceOnUse" id="cp10">
			<path d="M-137.44 1032.11L-567.34 1032.11C-567.34 1032.11 -476.62 1068.97 -359.32 1097C-356.38 1097.03 -353.41 1097.04 -350.46 1097.04C-280.35 1097.04 -207.56 1090.44 -137.44 1073L-137.44 1032.11" />
		</clipPath>
		<clipPath clipPathUnits="userSpaceOnUse" id="cp11">
			<path d="M-637.75 1067.33C-702.48 1067.33 -760.88 1069.2 -802.45 1072.21C-760.88 1075.23 -702.48 1077.09 -637.75 1077.09C-616.86 1077.09 -596.63 1076.91 -577.41 1076.53C-594.51 1073.59 -610.78 1070.48 -626.06 1067.35C-629.93 1067.33 -633.83 1067.33 -637.75 1067.33Z" />
		</clipPath>
		<clipPath clipPathUnits="userSpaceOnUse" id="cp12">
			<path d="M-626.06 1067.35C-610.78 1070.48 -594.51 1073.59 -577.41 1076.53C-537.08 1075.77 -501.2 1074.25 -473.05 1072.21C-512.1 1069.39 -566 1067.56 -626.06 1067.35Z" />
		</clipPath>
		<clipPath clipPathUnits="userSpaceOnUse" id="cp13">
			<path d="M-436.17 1104.68C-462.27 1104.68 -485.81 1106.56 -502.58 1109.56C-485.81 1112.57 -462.27 1114.45 -436.17 1114.45C-410.07 1114.45 -386.52 1112.57 -369.76 1109.56C-386.52 1106.56 -410.07 1104.68 -436.17 1104.68Z" />
		</clipPath>
		<clipPath clipPathUnits="userSpaceOnUse" id="cp14">
			<path d="M-852.76 1049.6C-878.86 1049.6 -902.41 1050.41 -919.17 1051.73C-902.41 1053.04 -878.86 1053.87 -852.76 1053.87C-826.66 1053.87 -803.11 1053.04 -786.35 1051.73C-803.11 1050.41 -826.66 1049.6 -852.76 1049.6Z" />
		</clipPath>
		<clipPath clipPathUnits="userSpaceOnUse" id="cp15">
			<path d="M-615.72 1167.95C-641.82 1167.95 -665.37 1169.83 -682.13 1172.83C-665.37 1175.84 -641.82 1177.72 -615.72 1177.72C-589.62 1177.72 -566.08 1175.84 -549.31 1172.83C-566.08 1169.83 -589.62 1167.95 -615.72 1167.95Z" />
		</clipPath>
		<clipPath clipPathUnits="userSpaceOnUse" id="cp16">
			<path d="M-542.85 1130.77C-588.78 1130.77 -630.22 1132.11 -659.72 1134.25C-630.22 1136.4 -588.78 1137.75 -542.85 1137.75C-496.92 1137.75 -455.48 1136.4 -425.98 1134.25C-455.48 1132.11 -496.92 1130.77 -542.85 1130.77Z" />
		</clipPath>
		<clipPath clipPathUnits="userSpaceOnUse" id="cp17">
			<path d="M-385.71 1164.45C-431.64 1164.45 -473.08 1165.8 -502.58 1167.95C-473.08 1170.09 -431.64 1171.44 -385.71 1171.44C-339.78 1171.44 -298.34 1170.09 -268.84 1167.95C-298.34 1165.8 -339.78 1164.45 -385.71 1164.45Z" />
		</clipPath>
		<clipPath clipPathUnits="userSpaceOnUse" id="cp18">
			<path d="M-288.67 1406.27C-288.67 1406.27 -574.27 1069.44 -1158.14 1032.11L-1158.14 1406.27L-288.67 1406.27Z" />
		</clipPath>
		<clipPath clipPathUnits="userSpaceOnUse" id="cp19">
			<path d="M-977.22 953.16L-1025.36 776.67C-1028.15 766.44 -1042.67 766.44 -1045.46 776.67L-1093.59 953.16C-1100.54 978.64 -1081.36 1003.73 -1054.97 1003.73L-1046.2 1003.73L-1046.2 1076.91L-1024.61 1076.91L-1024.61 1003.73L-1015.85 1003.73C-989.45 1003.73 -970.28 978.64 -977.22 953.16L-977.22 953.16Z" />
		</clipPath>
		<clipPath clipPathUnits="userSpaceOnUse" id="cp20">
			<path d="M-865.16 978.45L-905.15 831.81C-907.47 823.31 -919.53 823.31 -921.85 831.81L-961.85 978.45C-967.62 999.61 -951.69 1020.47 -929.75 1020.47L-922.47 1020.47L-922.47 1081.27L-904.53 1081.27L-904.53 1020.47L-897.25 1020.47C-875.32 1020.47 -859.39 999.61 -865.16 978.45L-865.16 978.45Z" />
		</clipPath>
		<clipPath clipPathUnits="userSpaceOnUse" id="cp21">
			<path d="M-819.34 1406.27C-819.34 1406.27 -610.21 1250.77 -137.44 1200.11L-137.44 1406.27L-819.34 1406.27Z" />
		</clipPath>
		<clipPath clipPathUnits="userSpaceOnUse" id="cp22">
			<path d="M-186.93 1111.23L-249.08 883.32C-252.68 870.11 -271.43 870.11 -275.03 883.32L-337.19 1111.23C-346.16 1144.11 -321.4 1176.52 -287.31 1176.52L-276 1176.52L-276 1271.01L-248.11 1271.01L-248.11 1176.52L-236.8 1176.52C-202.71 1176.52 -177.96 1144.11 -186.93 1111.23L-186.93 1111.23Z" />
		</clipPath>
		<clipPath clipPathUnits="userSpaceOnUse" id="cp23">
			<path d="M980.36 1814.6L41.55 1814.6C18.93 1814.6 0.6 1796.28 0.6 1773.67L0.6 40.96C0.6 18.36 18.93 0.03 41.55 0.03L980.36 0.03C1002.97 0.03 1021.31 18.36 1021.31 40.96L1021.31 1773.67C1021.31 1796.28 1002.97 1814.6 980.36 1814.6Z" />
		</clipPath>
		<linearGradient id="grd1" gradientUnits="userSpaceOnUse"  x1="703.475" y1="925.595" x2="703.475" y2="-225.24">
			<stop offset="0" stop-color="#bee8d6"  />
			<stop offset="0.413" stop-color="#78d1c8"  />
			<stop offset="1" stop-color="#4783ad"  />
		</linearGradient>
		<clipPath clipPathUnits="userSpaceOnUse" id="cp24">
			<path d="M478.33 731.25C478.33 825.69 401.77 902.25 307.33 902.25C212.88 902.25 136.32 825.69 136.32 731.25C136.32 636.81 212.88 560.25 307.33 560.25C401.77 560.25 478.33 636.81 478.33 731.25ZM456 731.25C456 649.15 389.44 582.59 307.33 582.59C225.23 582.59 158.67 649.15 158.67 731.25C158.67 813.36 225.23 879.92 307.33 879.92C389.44 879.92 456 813.36 456 731.25Z" />
		</clipPath>
		<linearGradient id="grd2" gradientUnits="userSpaceOnUse"  x1="307.333" y1="1049.6" x2="307.333" y2="5.417">
			<stop offset="0" stop-color="#d0eedb"  />
			<stop offset="0.413" stop-color="#9bddd0"  />
			<stop offset="1" stop-color="#74a7bb"  />
		</linearGradient>
		<clipPath clipPathUnits="userSpaceOnUse" id="cp25">
			<path d="M307.33 582.59C225.23 582.59 158.67 649.15 158.67 731.25C158.67 813.36 225.23 879.92 307.33 879.92C389.44 879.92 456 813.36 456 731.25C456 649.15 389.44 582.59 307.33 582.59Z" />
		</clipPath>
		<linearGradient id="grd3" gradientUnits="userSpaceOnUse"  x1="307.333" y1="1049.6" x2="307.333" y2="5.417">
			<stop offset="0" stop-color="#def3df"  />
			<stop offset="0.413" stop-color="#b6e6d6"  />
			<stop offset="1" stop-color="#9dc4c9"  />
		</linearGradient>
		<clipPath clipPathUnits="userSpaceOnUse" id="cp26">
			<path d="M870.07 1406.27C870.07 1406.27 584.47 1069.44 0.6 1032.11L0.6 1406.27L870.07 1406.27Z" />
		</clipPath>
		<linearGradient id="grd4" gradientUnits="userSpaceOnUse"  x1="494.227" y1="1362.774" x2="494.227" y2="1084.405">
			<stop offset="0" stop-color="#4e6294"  />
			<stop offset="1" stop-color="#414e7d"  />
		</linearGradient>
		<clipPath clipPathUnits="userSpaceOnUse" id="cp27">
			<path d="M181.52 953.16L133.39 776.67C130.59 766.44 116.08 766.44 113.28 776.67L65.15 953.16C58.2 978.64 77.37 1003.73 103.77 1003.73L112.53 1003.73L112.53 1076.91L134.13 1076.91L134.13 1003.73L142.89 1003.73C169.29 1003.73 188.47 978.64 181.52 953.16L181.52 953.16Z" />
		</clipPath>
		<linearGradient id="grd5" gradientUnits="userSpaceOnUse"  x1="123.333" y1="818.96" x2="123.333" y2="938.195">
			<stop offset="0" stop-color="#4e6294"  />
			<stop offset="1" stop-color="#414e7d"  />
		</linearGradient>
		<clipPath clipPathUnits="userSpaceOnUse" id="cp28">
			<path d="M293.59 978.45L253.59 831.81C251.27 823.31 239.21 823.31 236.89 831.81L196.89 978.45C191.12 999.61 207.05 1020.47 228.99 1020.47L236.27 1020.47L236.27 1081.27L254.21 1081.27L254.21 1020.47L261.49 1020.47C283.43 1020.47 299.35 999.61 293.59 978.45L293.59 978.45Z" />
		</clipPath>
		<linearGradient id="grd6" gradientUnits="userSpaceOnUse"  x1="245.24" y1="857.36" x2="245.24" y2="979.609">
			<stop offset="0" stop-color="#4e6294"  />
			<stop offset="1" stop-color="#414e7d"  />
		</linearGradient>
		<clipPath clipPathUnits="userSpaceOnUse" id="cp29">
			<path d="M339.4 1406.27C339.4 1406.27 548.53 1250.77 1021.31 1200.11L1021.31 1406.27L339.4 1406.27Z" />
		</clipPath>
		<linearGradient id="grd7" gradientUnits="userSpaceOnUse"  x1="890.178" y1="1331.903" x2="890.178" y2="1143.778">
			<stop offset="0" stop-color="#4c4a81"  />
			<stop offset="1" stop-color="#413f6c"  />
		</linearGradient>
		<clipPath clipPathUnits="userSpaceOnUse" id="cp30">
			<path d="M971.81 1111.23L909.67 883.32C906.05 870.11 887.32 870.11 883.71 883.32L821.56 1111.23C812.59 1144.11 837.35 1176.52 871.43 1176.52L882.75 1176.52L882.75 1271.01L910.63 1271.01L910.63 1176.52L921.93 1176.52C956.03 1176.52 980.79 1144.11 971.81 1111.23Z" />
		</clipPath>
		<linearGradient id="grd8" gradientUnits="userSpaceOnUse"  x1="1078.902" y1="788.636" x2="1078.902" y2="1012.655">
			<stop offset="0" stop-color="#4c4a81"  />
			<stop offset="1" stop-color="#413f6c"  />
		</linearGradient>
	</defs>
	<style>
		tspan { white-space:pre }
		.shp0 { fill: url(#grd1) } 
		.shp1 { fill: url(#grd2) } 
		.shp2 { fill: url(#grd3) } 
		.shp3 { fill: #ecf8f2 } 
		.shp4 { fill: #9dded5 } 
		.shp5 { fill: #64cbc7 } 
		.shp6 { fill: #4783ad } 
		.shp7 { fill: #8fd9d5 } 
		.shp8 { fill: #c2dae4 } 
		.shp9 { fill: #7bcfce } 
		.shp10 { fill: #d6f0e0 } 
		.shp11 { fill: #d2efdf } 
		.shp12 { fill: url(#grd4) } 
		.shp13 { fill: url(#grd5) } 
		.shp14 { fill: url(#grd6) } 
		.shp15 { fill: url(#grd7) } 
		.shp16 { fill: url(#grd8) } 
	</style>
	<g id="g10">
		<g id="g12">
			<g id="g14">
			</g>
			<g id="g24">
				<g id="Clip-Path: g26" clip-path="url(#cp1)">
					<g id="g26">
						<g id="g32">
						</g>
					</g>
				</g>
			</g>
			<g id="g42">
				<g id="Clip-Path: g44" clip-path="url(#cp2)">
					<g id="g44">
						<g id="g50">
						</g>
					</g>
				</g>
			</g>
			<g id="g60">
				<g id="Clip-Path: g62" clip-path="url(#cp3)">
					<g id="g62">
						<g id="g68">
						</g>
					</g>
				</g>
			</g>
			<g id="g80">
				<g id="Clip-Path: g82" clip-path="url(#cp4)">
					<g id="g82">
					</g>
				</g>
			</g>
			<g id="g98">
				<g id="Clip-Path: g100" clip-path="url(#cp5)">
					<g id="g100">
					</g>
				</g>
			</g>
			<g id="g136">
				<g id="Clip-Path: g138" clip-path="url(#cp6)">
					<g id="g138">
					</g>
				</g>
			</g>
			<g id="g152">
				<g id="Clip-Path: g154" clip-path="url(#cp7)">
					<g id="g154">
					</g>
				</g>
			</g>
			<g id="g168">
				<g id="Clip-Path: g170" clip-path="url(#cp8)">
					<g id="g170">
					</g>
				</g>
			</g>
			<g id="g184">
				<g id="Clip-Path: g186" clip-path="url(#cp9)">
					<g id="g186">
					</g>
				</g>
			</g>
			<g id="g200">
				<g id="Clip-Path: g202" clip-path="url(#cp10)">
					<g id="g202">
					</g>
				</g>
			</g>
			<g id="g216">
			</g>
			<g id="g228">
			</g>
			<g id="g236">
			</g>
			<g id="g242">
				<g id="Clip-Path: g244" clip-path="url(#cp11)">
					<g id="g244">
					</g>
				</g>
			</g>
			<g id="g258">
				<g id="Clip-Path: g260" clip-path="url(#cp12)">
					<g id="g260">
					</g>
				</g>
			</g>
			<g id="g274">
				<g id="Clip-Path: g276" clip-path="url(#cp13)">
					<g id="g276">
					</g>
				</g>
			</g>
			<g id="g290">
				<g id="Clip-Path: g292" clip-path="url(#cp14)">
					<g id="g292">
					</g>
				</g>
			</g>
			<g id="g306">
				<g id="Clip-Path: g308" clip-path="url(#cp15)">
					<g id="g308">
					</g>
				</g>
			</g>
			<g id="g322">
				<g id="Clip-Path: g324" clip-path="url(#cp16)">
					<g id="g324">
					</g>
				</g>
			</g>
			<g id="g338">
				<g id="Clip-Path: g340" clip-path="url(#cp17)">
					<g id="g340">
					</g>
				</g>
			</g>
			<g id="g354">
				<g id="Clip-Path: g356" clip-path="url(#cp18)">
					<g id="g356">
					</g>
				</g>
			</g>
			<g id="g370">
				<g id="Clip-Path: g372" clip-path="url(#cp19)">
					<g id="g372">
					</g>
				</g>
			</g>
			<g id="g386">
				<g id="Clip-Path: g388" clip-path="url(#cp20)">
					<g id="g388">
					</g>
				</g>
			</g>
			<g id="g402">
				<g id="Clip-Path: g404" clip-path="url(#cp21)">
					<g id="g404">
					</g>
				</g>
			</g>
			<g id="g418">
				<g id="Clip-Path: g420" clip-path="url(#cp22)">
					<g id="g420">
					</g>
				</g>
			</g>
			<g id="g434">
			</g>
			<g id="g448">
				<g id="text458">
				</g>
			</g>
			<g id="g464">
			</g>
			<g id="g474">
			</g>
			<g id="g484">
				<g id="Clip-Path: g486" clip-path="url(#cp23)">
					<g id="g486">
						<g id="g492">
							<path id="path502" class="shp0" d="M980.38 1814.6L41.55 1814.6C18.94 1814.6 0.61 1796.28 0.61 1773.66L0.61 40.96C0.61 18.34 18.94 0.02 41.55 0.02L980.38 0.02C1002.98 0.02 1021.32 18.34 1021.32 40.96L1021.32 1773.66C1021.32 1796.28 1002.98 1814.6 980.38 1814.6" />
						</g>
					</g>
				</g>
			</g>
			<g id="g504">
				<g id="Clip-Path: g506" clip-path="url(#cp24)">
					<g id="g506">
						<path id="path520" fill-rule="evenodd" class="shp1" d="M478.33 731.25C478.33 825.69 401.77 902.25 307.33 902.25C212.88 902.25 136.32 825.69 136.32 731.25C136.32 636.81 212.88 560.25 307.33 560.25C401.77 560.25 478.33 636.81 478.33 731.25ZM456 731.25C456 649.15 389.44 582.59 307.33 582.59C225.23 582.59 158.67 649.15 158.67 731.25C158.67 813.36 225.23 879.92 307.33 879.92C389.44 879.92 456 813.36 456 731.25Z" />
					</g>
				</g>
			</g>
			<g id="g522">
				<g id="Clip-Path: g524" clip-path="url(#cp25)">
					<g id="g524">
						<path id="path538" class="shp2" d="M307.33 582.59C225.23 582.59 158.67 649.15 158.67 731.25C158.67 813.36 225.23 879.92 307.33 879.92C389.44 879.92 456 813.36 456 731.25C456 649.15 389.44 582.59 307.33 582.59Z" />
					</g>
				</g>
			</g>
			<path id="path540" class="shp3" d="M375.65 784.17C304.76 784.17 247.28 726.69 247.28 655.8C247.28 642.04 249.45 628.79 253.45 616.36C211.13 637.35 182.04 680.99 182.04 731.44C182.04 802.33 239.52 859.81 310.41 859.81C367.56 859.81 415.97 822.48 432.61 770.87C415.45 779.39 396.12 784.17 375.65 784.17" />
			<g id="g542">
				<path id="path544" class="shp4" d="M0.61 1032.1L1021.32 1032.1L1021.32 1406.26L0.61 1406.26L0.61 1032.1Z" />
			</g>
			<g id="g546">
			</g>
			<g id="g550">
				<path id="path552" class="shp5" d="M395.4 1032.1C395.4 1032.1 731.41 873.4 1021.32 974.65L1021.32 1032.1L395.4 1032.1Z" />
			</g>
			<g id="g554">
				<path id="path556" class="shp6" d="M591.41 1032.1C591.41 1032.1 820.54 901.27 1021.32 897.43L1021.32 1032.1L591.41 1032.1Z" />
			</g>
			<g id="g558">
				<path id="path560" class="shp7" d="M591.4 1032.11L395.39 1032.11C395.39 1032.11 583.37 1095.3 799.42 1097C682.11 1068.98 591.4 1032.11 591.4 1032.11Z" />
			</g>
			<g id="g562">
				<path id="path564" class="shp8" d="M1021.32 1032.1L591.41 1032.1L591.41 1032.1L1021.32 1032.1L1021.32 1127.97L1021.32 1127.97L1021.32 1072.99L1021.32 1032.1Z" />
			</g>
			<g id="g566">
				<path id="path568" class="shp9" d="M1021.32 1032.1L591.41 1032.1C591.41 1032.1 682.12 1068.97 799.43 1096.99C868.55 1113.51 946.87 1126.95 1021.32 1127.97L1021.32 1032.1Z" />
			</g>
			<g id="g570">
			</g>
			<g id="g582">
			</g>
			<g id="g588">
			</g>
			<g id="g592">
			</g>
			<g id="g606">
			</g>
			<g id="g610">
			</g>
			<g id="g614">
				<g id="text624">
				</g>
			</g>
			<g id="g626">
			</g>
			<g id="g630">
			</g>
			<g id="g634">
			</g>
			<g id="g640">
			</g>
			<g id="g644">
			</g>
			<g id="g648">
			</g>
			<g id="g654">
			</g>
			<g id="g658">
			</g>
			<path id="path662" class="shp10" d="M525.95 1073.64C461.21 1073.64 402.81 1075.52 361.24 1078.53C402.81 1081.53 461.21 1083.41 525.95 1083.41C557.99 1083.41 588.48 1082.96 616.15 1082.12C598.88 1079.56 582.27 1076.77 566.45 1073.89C553.31 1073.73 539.77 1073.64 525.95 1073.64Z" />
			<path id="path664" class="shp11" d="M566.45 1073.89C582.27 1076.77 598.88 1079.56 616.15 1082.12C644.37 1081.28 669.65 1080.05 690.64 1078.53C657.95 1076.16 614.85 1074.49 566.45 1073.89" />
			<path id="path666" class="shp10" d="M727.52 1111C701.43 1111 677.88 1112.88 661.11 1115.88C677.88 1118.89 701.43 1120.77 727.52 1120.77C753.63 1120.77 777.17 1118.89 793.93 1115.88C777.17 1112.88 753.63 1111 727.52 1111Z" />
			<path id="path668" class="shp10" d="M310.93 1055.92C284.83 1055.92 261.28 1056.73 244.52 1058.05C261.28 1059.36 284.83 1060.19 310.93 1060.19C337.03 1060.19 360.57 1059.36 377.35 1058.05C360.57 1056.73 337.03 1055.92 310.93 1055.92Z" />
			<path id="path670" class="shp10" d="M547.97 1174.27C521.87 1174.27 498.32 1176.15 481.56 1179.15C498.32 1182.16 521.87 1184.04 547.97 1184.04C574.07 1184.04 597.61 1182.16 614.37 1179.15C597.61 1176.15 574.07 1174.27 547.97 1174.27Z" />
			<path id="path672" class="shp10" d="M620.84 1137.08C574.91 1137.08 533.48 1138.43 503.97 1140.57C533.48 1142.72 574.91 1144.07 620.84 1144.07C666.77 1144.07 708.21 1142.72 737.71 1140.57C708.21 1138.43 666.77 1137.08 620.84 1137.08Z" />
			<g id="g674">
				<path id="path676" class="shp10" d="M777.98 1170.77C732.05 1170.77 690.61 1172.12 661.1 1174.27C690.61 1176.42 732.05 1177.76 777.98 1177.76C823.9 1177.76 865.34 1176.42 894.85 1174.27C865.34 1172.12 823.9 1170.77 777.98 1170.77Z" />
			</g>
			<g id="g678">
				<g id="Clip-Path: g680" clip-path="url(#cp26)">
					<g id="g680">
						<g id="g686">
							<path id="path694" class="shp12" d="M870.08 1406.26C870.08 1406.26 584.47 1069.44 0.6 1032.1L0.6 1406.26L870.08 1406.26Z" />
						</g>
					</g>
				</g>
			</g>
			<g id="g696">
				<g id="Clip-Path: g698" clip-path="url(#cp27)">
					<g id="g698">
						<path id="path710" class="shp13" d="M181.52 953.16L133.39 776.67C130.59 766.44 116.08 766.44 113.28 776.67L65.15 953.16C58.2 978.64 77.37 1003.73 103.77 1003.73L112.53 1003.73L112.53 1076.91L134.13 1076.91L134.13 1003.73L142.89 1003.73C169.29 1003.73 188.47 978.64 181.52 953.16" />
					</g>
				</g>
			</g>
			<g id="g712">
				<g id="Clip-Path: g714" clip-path="url(#cp28)">
					<g id="g714">
						<path id="path726" class="shp14" d="M293.59 978.45L253.59 831.81C251.27 823.31 239.21 823.31 236.89 831.81L196.89 978.45C191.12 999.61 207.05 1020.47 228.99 1020.47L236.27 1020.47L236.27 1081.27L254.21 1081.27L254.21 1020.47L261.49 1020.47C283.43 1020.47 299.35 999.61 293.59 978.45" />
					</g>
				</g>
			</g>
			<g id="g728">
				<g id="Clip-Path: g730" clip-path="url(#cp29)">
					<g id="g730">
						<g id="g736">
							<path id="path744" class="shp15" d="M339.4 1406.26C339.4 1406.26 548.54 1250.77 1021.32 1200.1L1021.32 1406.26L339.4 1406.26Z" />
						</g>
					</g>
				</g>
			</g>
			<g id="g746">
				<g id="Clip-Path: g748" clip-path="url(#cp30)">
					<g id="g748">
						<g id="g754">
							<path id="path762" class="shp16" d="M971.83 1111.22L909.68 883.32C906.06 870.1 887.32 870.1 883.72 883.32L821.57 1111.22C812.6 1144.1 837.36 1176.51 871.44 1176.51L882.76 1176.51L882.76 1271.01L910.64 1271.01L910.64 1176.51L921.95 1176.51C956.04 1176.51 980.8 1144.1 971.83 1111.22Z" />
						</g>
					</g>
				</g>
			</g>
		</g>
	</g>
</svg>