<svg xmlns="http://www.w3.org/2000/svg" viewBox="0 0 1022 847" width="1022" height="847">
	<defs>
		<clipPath clipPathUnits="userSpaceOnUse" id="cp1">
			<path d="M-126 -513.93L-1064.82 -513.93C-1087.43 -513.93 -1105.76 -495.61 -1105.76 -473L-1105.76 1259.71C-1105.76 1282.32 -1087.43 1300.64 -1064.82 1300.64L-126 1300.64C-103.39 1300.64 -85.06 1282.32 -85.06 1259.71L-85.06 -473C-85.06 -495.61 -103.39 -513.93 -126 -513.93" />
		</clipPath>
		<clipPath clipPathUnits="userSpaceOnUse" id="cp2">
			<path d="M1035.87 -513.93L97.04 -513.93C74.44 -513.93 56.11 -495.61 56.11 -473L56.11 1259.71C56.11 1282.32 74.44 1300.64 97.04 1300.64L1035.87 1300.64C1058.48 1300.64 1076.8 1282.32 1076.8 1259.71L1076.8 -473C1076.8 -495.61 1058.48 -513.93 1035.87 -513.93Z" />
		</clipPath>
		<clipPath clipPathUnits="userSpaceOnUse" id="cp3">
			<path d="M-178.38 1254.6L-1117.2 1254.6C-1139.81 1254.6 -1158.14 1236.28 -1158.14 1213.67L-1158.14 -519.04C-1158.14 -541.64 -1139.81 -559.97 -1117.2 -559.97L-178.38 -559.97C-155.77 -559.97 -137.44 -541.64 -137.44 -519.04L-137.44 1213.67C-137.44 1236.28 -155.77 1254.6 -178.38 1254.6Z" />
		</clipPath>
		<clipPath clipPathUnits="userSpaceOnUse" id="cp4">
			<path d="M-863.97 35.81C-769.53 35.81 -692.96 112.37 -692.96 206.81C-692.96 301.25 -769.53 377.83 -863.97 377.83C-958.41 377.83 -1034.97 301.25 -1034.97 206.81C-1034.97 112.37 -958.41 35.81 -863.97 35.81ZM-715.3 206.81C-715.3 124.71 -781.86 58.15 -863.97 58.15C-946.07 58.15 -1012.64 124.71 -1012.64 206.81C-1012.64 288.92 -946.07 355.48 -863.97 355.48C-781.86 355.48 -715.3 288.92 -715.3 206.81Z" />
		</clipPath>
		<clipPath clipPathUnits="userSpaceOnUse" id="cp5">
			<path d="M-863.97 58.15C-946.07 58.15 -1012.64 124.71 -1012.64 206.81C-1012.64 288.92 -946.07 355.48 -863.97 355.48C-781.86 355.48 -715.3 288.92 -715.3 206.81C-715.3 124.71 -781.86 58.15 -863.97 58.15" />
		</clipPath>
		<clipPath clipPathUnits="userSpaceOnUse" id="cp6">
			<path d="M-763.34 472.11C-763.34 472.11 -427.34 313.41 -137.44 414.65L-137.44 472.11L-763.34 472.11Z" />
		</clipPath>
		<clipPath clipPathUnits="userSpaceOnUse" id="cp7">
			<path d="M-567.34 472.11C-567.34 472.11 -338.21 341.28 -137.44 337.43L-137.44 472.11L-567.34 472.11Z" />
		</clipPath>
		<clipPath clipPathUnits="userSpaceOnUse" id="cp8">
			<path d="M-567.34 472.11L-763.34 472.11C-763.34 472.11 -575.37 535.29 -359.32 537C-476.62 508.97 -567.34 472.11 -567.34 472.11Z" />
		</clipPath>
		<clipPath clipPathUnits="userSpaceOnUse" id="cp9">
			<path d="M-137.44 513C-207.56 530.44 -280.35 537.04 -350.46 537.04C-353.41 537.04 -356.38 537.03 -359.32 537C-290.21 553.52 -211.87 566.96 -137.44 567.97L-137.44 513Z" />
		</clipPath>
		<clipPath clipPathUnits="userSpaceOnUse" id="cp10">
			<path d="M-137.44 472.11L-567.34 472.11C-567.34 472.11 -476.62 508.97 -359.32 537C-356.38 537.03 -353.41 537.04 -350.46 537.04C-280.35 537.04 -207.56 530.44 -137.44 513L-137.44 472.11" />
		</clipPath>
		<clipPath clipPathUnits="userSpaceOnUse" id="cp11">
			<path d="M-637.75 507.33C-702.48 507.33 -760.88 509.2 -802.45 512.21C-760.88 515.23 -702.48 517.09 -637.75 517.09C-616.86 517.09 -596.63 516.91 -577.41 516.53C-594.51 513.59 -610.78 510.48 -626.06 507.35C-629.93 507.33 -633.83 507.33 -637.75 507.33Z" />
		</clipPath>
		<clipPath clipPathUnits="userSpaceOnUse" id="cp12">
			<path d="M-626.06 507.35C-610.78 510.48 -594.51 513.59 -577.41 516.53C-537.08 515.77 -501.2 514.25 -473.05 512.21C-512.1 509.39 -566 507.56 -626.06 507.35Z" />
		</clipPath>
		<clipPath clipPathUnits="userSpaceOnUse" id="cp13">
			<path d="M-436.17 544.68C-462.27 544.68 -485.81 546.56 -502.58 549.56C-485.81 552.57 -462.27 554.45 -436.17 554.45C-410.07 554.45 -386.52 552.57 -369.76 549.56C-386.52 546.56 -410.07 544.68 -436.17 544.68Z" />
		</clipPath>
		<clipPath clipPathUnits="userSpaceOnUse" id="cp14">
			<path d="M-852.76 489.6C-878.86 489.6 -902.41 490.41 -919.17 491.73C-902.41 493.04 -878.86 493.87 -852.76 493.87C-826.66 493.87 -803.11 493.04 -786.35 491.73C-803.11 490.41 -826.66 489.6 -852.76 489.6Z" />
		</clipPath>
		<clipPath clipPathUnits="userSpaceOnUse" id="cp15">
			<path d="M-615.72 607.95C-641.82 607.95 -665.37 609.83 -682.13 612.83C-665.37 615.84 -641.82 617.72 -615.72 617.72C-589.62 617.72 -566.08 615.84 -549.31 612.83C-566.08 609.83 -589.62 607.95 -615.72 607.95Z" />
		</clipPath>
		<clipPath clipPathUnits="userSpaceOnUse" id="cp16">
			<path d="M-542.85 570.77C-588.78 570.77 -630.22 572.11 -659.72 574.25C-630.22 576.4 -588.78 577.75 -542.85 577.75C-496.92 577.75 -455.48 576.4 -425.98 574.25C-455.48 572.11 -496.92 570.77 -542.85 570.77Z" />
		</clipPath>
		<clipPath clipPathUnits="userSpaceOnUse" id="cp17">
			<path d="M-385.71 604.45C-431.64 604.45 -473.08 605.8 -502.58 607.95C-473.08 610.09 -431.64 611.44 -385.71 611.44C-339.78 611.44 -298.34 610.09 -268.84 607.95C-298.34 605.8 -339.78 604.45 -385.71 604.45Z" />
		</clipPath>
		<clipPath clipPathUnits="userSpaceOnUse" id="cp18">
			<path d="M-288.67 846.27C-288.67 846.27 -574.27 509.44 -1158.14 472.11L-1158.14 846.27L-288.67 846.27Z" />
		</clipPath>
		<clipPath clipPathUnits="userSpaceOnUse" id="cp19">
			<path d="M-977.22 393.16L-1025.36 216.67C-1028.15 206.44 -1042.67 206.44 -1045.46 216.67L-1093.59 393.16C-1100.54 418.64 -1081.36 443.73 -1054.97 443.73L-1046.2 443.73L-1046.2 516.91L-1024.61 516.91L-1024.61 443.73L-1015.85 443.73C-989.45 443.73 -970.28 418.64 -977.22 393.16L-977.22 393.16Z" />
		</clipPath>
		<clipPath clipPathUnits="userSpaceOnUse" id="cp20">
			<path d="M-865.16 418.45L-905.15 271.81C-907.47 263.31 -919.53 263.31 -921.85 271.81L-961.85 418.45C-967.62 439.61 -951.69 460.47 -929.75 460.47L-922.47 460.47L-922.47 521.27L-904.53 521.27L-904.53 460.47L-897.25 460.47C-875.32 460.47 -859.39 439.61 -865.16 418.45L-865.16 418.45Z" />
		</clipPath>
		<clipPath clipPathUnits="userSpaceOnUse" id="cp21">
			<path d="M-819.34 846.27C-819.34 846.27 -610.21 690.77 -137.44 640.11L-137.44 846.27L-819.34 846.27Z" />
		</clipPath>
		<clipPath clipPathUnits="userSpaceOnUse" id="cp22">
			<path d="M-186.93 551.23L-249.08 323.32C-252.68 310.11 -271.43 310.11 -275.03 323.32L-337.19 551.23C-346.16 584.11 -321.4 616.52 -287.31 616.52L-276 616.52L-276 711.01L-248.11 711.01L-248.11 616.52L-236.8 616.52C-202.71 616.52 -177.96 584.11 -186.93 551.23L-186.93 551.23Z" />
		</clipPath>
		<clipPath clipPathUnits="userSpaceOnUse" id="cp23">
			<path d="M980.36 1254.6L41.55 1254.6C18.93 1254.6 0.6 1236.28 0.6 1213.67L0.6 -519.04C0.6 -541.64 18.93 -559.97 41.55 -559.97L980.36 -559.97C1002.97 -559.97 1021.31 -541.64 1021.31 -519.04L1021.31 1213.67C1021.31 1236.28 1002.97 1254.6 980.36 1254.6Z" />
		</clipPath>
		<clipPath clipPathUnits="userSpaceOnUse" id="cp24">
			<path d="M478.33 171.25C478.33 265.69 401.77 342.25 307.33 342.25C212.88 342.25 136.32 265.69 136.32 171.25C136.32 76.81 212.88 0.25 307.33 0.25C401.77 0.25 478.33 76.81 478.33 171.25ZM456 171.25C456 89.15 389.44 22.59 307.33 22.59C225.23 22.59 158.67 89.15 158.67 171.25C158.67 253.36 225.23 319.92 307.33 319.92C389.44 319.92 456 253.36 456 171.25Z" />
		</clipPath>
		<linearGradient id="grd1" gradientUnits="userSpaceOnUse"  x1="307.333" y1="489.6" x2="307.333" y2="-554.583">
			<stop offset="0" stop-color="#d0eedb"  />
			<stop offset="0.413" stop-color="#9bddd0"  />
			<stop offset="1" stop-color="#74a7bb"  />
		</linearGradient>
		<clipPath clipPathUnits="userSpaceOnUse" id="cp25">
			<path d="M307.33 22.59C225.23 22.59 158.67 89.15 158.67 171.25C158.67 253.36 225.23 319.92 307.33 319.92C389.44 319.92 456 253.36 456 171.25C456 89.15 389.44 22.59 307.33 22.59Z" />
		</clipPath>
		<linearGradient id="grd2" gradientUnits="userSpaceOnUse"  x1="307.333" y1="489.6" x2="307.333" y2="-554.583">
			<stop offset="0" stop-color="#def3df"  />
			<stop offset="0.413" stop-color="#b6e6d6"  />
			<stop offset="1" stop-color="#9dc4c9"  />
		</linearGradient>
		<clipPath clipPathUnits="userSpaceOnUse" id="cp26">
			<path d="M870.07 846.27C870.07 846.27 584.47 509.44 0.6 472.11L0.6 846.27L870.07 846.27Z" />
		</clipPath>
		<linearGradient id="grd3" gradientUnits="userSpaceOnUse"  x1="494.227" y1="802.774" x2="494.227" y2="524.405">
			<stop offset="0" stop-color="#4e6294"  />
			<stop offset="1" stop-color="#414e7d"  />
		</linearGradient>
		<clipPath clipPathUnits="userSpaceOnUse" id="cp27">
			<path d="M181.52 393.16L133.39 216.67C130.59 206.44 116.08 206.44 113.28 216.67L65.15 393.16C58.2 418.64 77.37 443.73 103.77 443.73L112.53 443.73L112.53 516.91L134.13 516.91L134.13 443.73L142.89 443.73C169.29 443.73 188.47 418.64 181.52 393.16L181.52 393.16Z" />
		</clipPath>
		<linearGradient id="grd4" gradientUnits="userSpaceOnUse"  x1="123.333" y1="258.96" x2="123.333" y2="378.195">
			<stop offset="0" stop-color="#4e6294"  />
			<stop offset="1" stop-color="#414e7d"  />
		</linearGradient>
		<clipPath clipPathUnits="userSpaceOnUse" id="cp28">
			<path d="M293.59 418.45L253.59 271.81C251.27 263.31 239.21 263.31 236.89 271.81L196.89 418.45C191.12 439.61 207.05 460.47 228.99 460.47L236.27 460.47L236.27 521.27L254.21 521.27L254.21 460.47L261.49 460.47C283.43 460.47 299.35 439.61 293.59 418.45L293.59 418.45Z" />
		</clipPath>
		<linearGradient id="grd5" gradientUnits="userSpaceOnUse"  x1="245.24" y1="297.36" x2="245.24" y2="419.609">
			<stop offset="0" stop-color="#4e6294"  />
			<stop offset="1" stop-color="#414e7d"  />
		</linearGradient>
		<clipPath clipPathUnits="userSpaceOnUse" id="cp29">
			<path d="M339.4 846.27C339.4 846.27 548.53 690.77 1021.31 640.11L1021.31 846.27L339.4 846.27Z" />
		</clipPath>
		<linearGradient id="grd6" gradientUnits="userSpaceOnUse"  x1="890.178" y1="771.903" x2="890.178" y2="583.778">
			<stop offset="0" stop-color="#4c4a81"  />
			<stop offset="1" stop-color="#413f6c"  />
		</linearGradient>
		<clipPath clipPathUnits="userSpaceOnUse" id="cp30">
			<path d="M971.81 551.23L909.67 323.32C906.05 310.11 887.32 310.11 883.71 323.32L821.56 551.23C812.59 584.11 837.35 616.52 871.43 616.52L882.75 616.52L882.75 711.01L910.63 711.01L910.63 616.52L921.93 616.52C956.03 616.52 980.79 584.11 971.81 551.23Z" />
		</clipPath>
		<linearGradient id="grd7" gradientUnits="userSpaceOnUse"  x1="1078.902" y1="228.636" x2="1078.902" y2="452.655">
			<stop offset="0" stop-color="#4c4a81"  />
			<stop offset="1" stop-color="#413f6c"  />
		</linearGradient>
	</defs>
	<style>
		tspan { white-space:pre }
		.shp0 { fill: url(#grd1) } 
		.shp1 { fill: url(#grd2) } 
		.shp2 { fill: #ecf8f2 } 
		.shp3 { fill: #9dded5 } 
		.shp4 { fill: #64cbc7 } 
		.shp5 { fill: #4783ad } 
		.shp6 { fill: #8fd9d5 } 
		.shp7 { fill: #c2dae4 } 
		.shp8 { fill: #7bcfce } 
		.shp9 { fill: #d6f0e0 } 
		.shp10 { fill: #d2efdf } 
		.shp11 { fill: url(#grd3) } 
		.shp12 { fill: url(#grd4) } 
		.shp13 { fill: url(#grd5) } 
		.shp14 { fill: url(#grd6) } 
		.shp15 { fill: url(#grd7) } 
	</style>
	<g id="g10">
		<g id="g12">
			<g id="g14">
			</g>
			<g id="g24">
				<g id="Clip-Path: g26" clip-path="url(#cp1)">
					<g id="g26">
						<g id="g32">
						</g>
					</g>
				</g>
			</g>
			<g id="g42">
				<g id="Clip-Path: g44" clip-path="url(#cp2)">
					<g id="g44">
						<g id="g50">
						</g>
					</g>
				</g>
			</g>
			<g id="g60">
				<g id="Clip-Path: g62" clip-path="url(#cp3)">
					<g id="g62">
						<g id="g68">
						</g>
					</g>
				</g>
			</g>
			<g id="g80">
				<g id="Clip-Path: g82" clip-path="url(#cp4)">
					<g id="g82">
					</g>
				</g>
			</g>
			<g id="g98">
				<g id="Clip-Path: g100" clip-path="url(#cp5)">
					<g id="g100">
					</g>
				</g>
			</g>
			<g id="g136">
				<g id="Clip-Path: g138" clip-path="url(#cp6)">
					<g id="g138">
					</g>
				</g>
			</g>
			<g id="g152">
				<g id="Clip-Path: g154" clip-path="url(#cp7)">
					<g id="g154">
					</g>
				</g>
			</g>
			<g id="g168">
				<g id="Clip-Path: g170" clip-path="url(#cp8)">
					<g id="g170">
					</g>
				</g>
			</g>
			<g id="g184">
				<g id="Clip-Path: g186" clip-path="url(#cp9)">
					<g id="g186">
					</g>
				</g>
			</g>
			<g id="g200">
				<g id="Clip-Path: g202" clip-path="url(#cp10)">
					<g id="g202">
					</g>
				</g>
			</g>
			<g id="g216">
			</g>
			<g id="g228">
			</g>
			<g id="g236">
			</g>
			<g id="g242">
				<g id="Clip-Path: g244" clip-path="url(#cp11)">
					<g id="g244">
					</g>
				</g>
			</g>
			<g id="g258">
				<g id="Clip-Path: g260" clip-path="url(#cp12)">
					<g id="g260">
					</g>
				</g>
			</g>
			<g id="g274">
				<g id="Clip-Path: g276" clip-path="url(#cp13)">
					<g id="g276">
					</g>
				</g>
			</g>
			<g id="g290">
				<g id="Clip-Path: g292" clip-path="url(#cp14)">
					<g id="g292">
					</g>
				</g>
			</g>
			<g id="g306">
				<g id="Clip-Path: g308" clip-path="url(#cp15)">
					<g id="g308">
					</g>
				</g>
			</g>
			<g id="g322">
				<g id="Clip-Path: g324" clip-path="url(#cp16)">
					<g id="g324">
					</g>
				</g>
			</g>
			<g id="g338">
				<g id="Clip-Path: g340" clip-path="url(#cp17)">
					<g id="g340">
					</g>
				</g>
			</g>
			<g id="g354">
				<g id="Clip-Path: g356" clip-path="url(#cp18)">
					<g id="g356">
					</g>
				</g>
			</g>
			<g id="g370">
				<g id="Clip-Path: g372" clip-path="url(#cp19)">
					<g id="g372">
					</g>
				</g>
			</g>
			<g id="g386">
				<g id="Clip-Path: g388" clip-path="url(#cp20)">
					<g id="g388">
					</g>
				</g>
			</g>
			<g id="g402">
				<g id="Clip-Path: g404" clip-path="url(#cp21)">
					<g id="g404">
					</g>
				</g>
			</g>
			<g id="g418">
				<g id="Clip-Path: g420" clip-path="url(#cp22)">
					<g id="g420">
					</g>
				</g>
			</g>
			<g id="g434">
			</g>
			<g id="g448">
				<g id="text458">
				</g>
			</g>
			<g id="g464">
			</g>
			<g id="g474">
			</g>
			<g id="g484">
				<g id="Clip-Path: g486" clip-path="url(#cp23)">
					<g id="g486">
						<g id="g492">
						</g>
					</g>
				</g>
			</g>
			<g id="g504">
				<g id="Clip-Path: g506" clip-path="url(#cp24)">
					<g id="g506">
						<path id="path520" fill-rule="evenodd" class="shp0" d="M478.33 171.25C478.33 265.69 401.77 342.25 307.33 342.25C212.88 342.25 136.32 265.69 136.32 171.25C136.32 76.81 212.88 0.25 307.33 0.25C401.77 0.25 478.33 76.81 478.33 171.25ZM456 171.25C456 89.15 389.44 22.59 307.33 22.59C225.23 22.59 158.67 89.15 158.67 171.25C158.67 253.36 225.23 319.92 307.33 319.92C389.44 319.92 456 253.36 456 171.25Z" />
					</g>
				</g>
			</g>
			<g id="g522">
				<g id="Clip-Path: g524" clip-path="url(#cp25)">
					<g id="g524">
						<path id="path538" class="shp1" d="M307.33 22.59C225.23 22.59 158.67 89.15 158.67 171.25C158.67 253.36 225.23 319.92 307.33 319.92C389.44 319.92 456 253.36 456 171.25C456 89.15 389.44 22.59 307.33 22.59Z" />
					</g>
				</g>
			</g>
			<path id="path540" class="shp2" d="M375.65 224.17C304.76 224.17 247.28 166.69 247.28 95.8C247.28 82.04 249.45 68.79 253.45 56.36C211.13 77.35 182.04 120.99 182.04 171.44C182.04 242.33 239.52 299.81 310.41 299.81C367.56 299.81 415.97 262.48 432.61 210.87C415.45 219.39 396.12 224.17 375.65 224.17" />
			<g id="g542">
				<path id="path544" class="shp3" d="M0.61 472.1L1021.32 472.1L1021.32 846.26L0.61 846.26L0.61 472.1Z" />
			</g>
			<g id="g546">
			</g>
			<g id="g550">
				<path id="path552" class="shp4" d="M395.4 472.1C395.4 472.1 731.41 313.4 1021.32 414.65L1021.32 472.1L395.4 472.1Z" />
			</g>
			<g id="g554">
				<path id="path556" class="shp5" d="M591.41 472.1C591.41 472.1 820.54 341.27 1021.32 337.43L1021.32 472.1L591.41 472.1Z" />
			</g>
			<g id="g558">
				<path id="path560" class="shp6" d="M591.4 472.11L395.39 472.11C395.39 472.11 583.37 535.3 799.42 537C682.11 508.98 591.4 472.11 591.4 472.11Z" />
			</g>
			<g id="g562">
				<path id="path564" class="shp7" d="M1021.32 472.1L591.41 472.1L591.41 472.1L1021.32 472.1L1021.32 567.97L1021.32 567.97L1021.32 512.99L1021.32 472.1Z" />
			</g>
			<g id="g566">
				<path id="path568" class="shp8" d="M1021.32 472.1L591.41 472.1C591.41 472.1 682.12 508.97 799.43 536.99C868.55 553.51 946.87 566.95 1021.32 567.97L1021.32 472.1Z" />
			</g>
			<g id="g570">
			</g>
			<g id="g582">
			</g>
			<g id="g588">
			</g>
			<g id="g592">
			</g>
			<g id="g606">
			</g>
			<g id="g610">
			</g>
			<g id="g614">
				<g id="text624">
				</g>
			</g>
			<g id="g626">
			</g>
			<g id="g630">
			</g>
			<g id="g634">
			</g>
			<g id="g640">
			</g>
			<g id="g644">
			</g>
			<g id="g648">
			</g>
			<g id="g654">
			</g>
			<g id="g658">
			</g>
			<path id="path662" class="shp9" d="M525.95 513.64C461.21 513.64 402.81 515.52 361.24 518.53C402.81 521.53 461.21 523.41 525.95 523.41C557.99 523.41 588.48 522.96 616.15 522.12C598.88 519.56 582.27 516.77 566.45 513.89C553.31 513.73 539.77 513.64 525.95 513.64Z" />
			<path id="path664" class="shp10" d="M566.45 513.89C582.27 516.77 598.88 519.56 616.15 522.12C644.37 521.28 669.65 520.05 690.64 518.53C657.95 516.16 614.85 514.49 566.45 513.89" />
			<path id="path666" class="shp9" d="M727.52 551C701.43 551 677.88 552.88 661.11 555.88C677.88 558.89 701.43 560.77 727.52 560.77C753.63 560.77 777.17 558.89 793.93 555.88C777.17 552.88 753.63 551 727.52 551Z" />
			<path id="path668" class="shp9" d="M310.93 495.92C284.83 495.92 261.28 496.73 244.52 498.05C261.28 499.36 284.83 500.19 310.93 500.19C337.03 500.19 360.57 499.36 377.35 498.05C360.57 496.73 337.03 495.92 310.93 495.92Z" />
			<path id="path670" class="shp9" d="M547.97 614.27C521.87 614.27 498.32 616.15 481.56 619.15C498.32 622.16 521.87 624.04 547.97 624.04C574.07 624.04 597.61 622.16 614.37 619.15C597.61 616.15 574.07 614.27 547.97 614.27Z" />
			<path id="path672" class="shp9" d="M620.84 577.08C574.91 577.08 533.48 578.43 503.97 580.57C533.48 582.72 574.91 584.07 620.84 584.07C666.77 584.07 708.21 582.72 737.71 580.57C708.21 578.43 666.77 577.08 620.84 577.08Z" />
			<g id="g674">
				<path id="path676" class="shp9" d="M777.98 610.77C732.05 610.77 690.61 612.12 661.1 614.27C690.61 616.42 732.05 617.76 777.98 617.76C823.9 617.76 865.34 616.42 894.85 614.27C865.34 612.12 823.9 610.77 777.98 610.77Z" />
			</g>
			<g id="g678">
				<g id="Clip-Path: g680" clip-path="url(#cp26)">
					<g id="g680">
						<g id="g686">
							<path id="path694" class="shp11" d="M870.08 846.26C870.08 846.26 584.47 509.44 0.6 472.1L0.6 846.26L870.08 846.26Z" />
						</g>
					</g>
				</g>
			</g>
			<g id="g696">
				<g id="Clip-Path: g698" clip-path="url(#cp27)">
					<g id="g698">
						<path id="path710" class="shp12" d="M181.52 393.16L133.39 216.67C130.59 206.44 116.08 206.44 113.28 216.67L65.15 393.16C58.2 418.64 77.37 443.73 103.77 443.73L112.53 443.73L112.53 516.91L134.13 516.91L134.13 443.73L142.89 443.73C169.29 443.73 188.47 418.64 181.52 393.16" />
					</g>
				</g>
			</g>
			<g id="g712">
				<g id="Clip-Path: g714" clip-path="url(#cp28)">
					<g id="g714">
						<path id="path726" class="shp13" d="M293.59 418.45L253.59 271.81C251.27 263.31 239.21 263.31 236.89 271.81L196.89 418.45C191.12 439.61 207.05 460.47 228.99 460.47L236.27 460.47L236.27 521.27L254.21 521.27L254.21 460.47L261.49 460.47C283.43 460.47 299.35 439.61 293.59 418.45" />
					</g>
				</g>
			</g>
			<g id="g728">
				<g id="Clip-Path: g730" clip-path="url(#cp29)">
					<g id="g730">
						<g id="g736">
							<path id="path744" class="shp14" d="M339.4 846.26C339.4 846.26 548.54 690.77 1021.32 640.1L1021.32 846.26L339.4 846.26Z" />
						</g>
					</g>
				</g>
			</g>
			<g id="g746">
				<g id="Clip-Path: g748" clip-path="url(#cp30)">
					<g id="g748">
						<g id="g754">
							<path id="path762" class="shp15" d="M971.83 551.22L909.68 323.32C906.06 310.1 887.32 310.1 883.72 323.32L821.57 551.22C812.6 584.1 837.36 616.51 871.44 616.51L882.76 616.51L882.76 711.01L910.64 711.01L910.64 616.51L921.95 616.51C956.04 616.51 980.8 584.1 971.83 551.22Z" />
						</g>
					</g>
				</g>
			</g>
		</g>
	</g>
</svg>