<svg id="Capa_1" enable-background="new 0 0 512 512" height="512" viewBox="0 0 512 512" width="512" xmlns="http://www.w3.org/2000/svg"><g><path d="m419.761 171.606c.004-.015.009-.029.013-.044.028-.124-.009.022-.013.044z"/><path d="m451.586 163.595c.275-2.882.414-5.751.414-8.595 0-52.383-42.617-95-95-95-4.502 0-8.95.329-13.325.949-13.893-36.059-49.065-60.949-88.675-60.949-31.574 0-60.654 15.666-78.176 41.062-12.684-7.208-27.059-11.062-41.824-11.062-46.869 0-85 38.131-85 85 0 3.053.164 6.098.491 9.123-29.661 10.213-50.491 38.328-50.491 70.877 0 41.355 33.645 75 75 75h28.509c6.968 34.192 37.271 60 73.491 60h250c46.869 0 85-38.131 85-85 0-38.235-25.063-70.837-60.414-81.405zm-348.08 76.405h-28.506c-24.813 0-45-20.187-45-45 0-22.843 17.098-42.045 39.771-44.665 4.421-.511 8.387-2.958 10.826-6.682 2.438-3.723 3.098-8.336 1.8-12.594-1.59-5.215-2.397-10.619-2.397-16.059 0-30.327 24.673-55 55-55 13.518 0 26.547 5.019 36.689 14.131 3.582 3.219 8.492 4.521 13.198 3.503 4.707-1.019 8.638-4.235 10.569-8.646 10.366-23.684 33.739-38.988 59.544-38.988 26.424 0 49.958 16.18 59.928 39.842-14.369 7.11-26.85 17.807-36.104 31.221-12.684-7.209-27.059-11.063-41.824-11.063-46.869 0-85 38.131-85 85 0 3.053.164 6.098.491 9.124-24.988 8.603-43.706 29.914-48.985 55.876zm323.494 60h-250c-24.813 0-45-20.187-45-45 0-19.025 11.866-35.516 28.929-42.013 4.039 8.079 9.393 15.543 15.967 22.116 2.929 2.929 6.768 4.394 10.606 4.394s7.678-1.465 10.607-4.394c5.857-5.857 5.857-15.355 0-21.213-6.473-6.473-11.122-14.314-13.712-22.831-1.59-5.215-2.397-10.619-2.397-16.059 0-30.327 24.673-55 55-55 10.269 0 20.253 2.903 28.906 8.29-4.748 16.202-5.227 33.647-.906 50.447 2.063 8.023 10.242 12.856 18.263 10.791 8.023-2.063 12.855-10.24 10.792-18.264-3.646-14.179-2.266-29.183 3.401-42.276 10.366-23.684 33.739-38.988 59.544-38.988 35.841 0 65 29.159 65 65 0 5.376-.749 10.948-2.227 16.562-.012.046-.014.052-.013.044-2.856 10.572-8.514 21.07-16.799 29.355-5.858 5.857-5.858 15.355 0 21.213 2.929 2.929 6.768 4.394 10.606 4.394s7.678-1.465 10.606-4.394c8.727-8.727 15.377-18.748 19.985-29.448 22.209 7.218 37.842 27.982 37.842 52.274 0 30.327-24.673 55-55 55z"/><path d="m312.292 414.5c-4.142-7.174-13.316-9.634-20.49-5.49l-20.802 12.009v-24.019c0-8.284-6.716-15-15-15s-15 6.716-15 15v24.019l-20.801-12.01c-7.176-4.145-16.35-1.685-20.49 5.49-4.142 7.175-1.684 16.349 5.49 20.49l20.801 12.011-20.802 12.01c-7.174 4.142-9.632 13.315-5.49 20.49 2.778 4.812 7.82 7.503 13.004 7.503 2.544 0 5.124-.648 7.486-2.013l20.802-12.009v24.019c0 8.284 6.716 15 15 15s15-6.716 15-15v-24.019l20.801 12.01c2.362 1.364 4.941 2.013 7.486 2.013 5.184 0 10.227-2.691 13.004-7.503 4.142-7.175 1.684-16.349-5.49-20.49l-20.801-12.011 20.802-12.01c7.174-4.141 9.632-13.315 5.49-20.49z"/><path d="m472.292 414.5c-4.142-7.174-13.316-9.634-20.49-5.49l-20.802 12.009v-24.019c0-8.284-6.716-15-15-15s-15 6.716-15 15v24.019l-20.801-12.01c-7.175-4.145-16.349-1.685-20.49 5.49-4.142 7.175-1.684 16.349 5.49 20.49l20.801 12.011-20.802 12.01c-7.174 4.142-9.632 13.315-5.49 20.49 2.778 4.812 7.82 7.503 13.004 7.503 2.544 0 5.124-.648 7.486-2.013l20.802-12.009v24.019c0 8.284 6.716 15 15 15s15-6.716 15-15v-24.019l20.801 12.01c2.362 1.364 4.941 2.013 7.486 2.013 5.184 0 10.227-2.691 13.004-7.503 4.142-7.175 1.684-16.349-5.49-20.49l-20.801-12.011 20.802-12.01c7.174-4.141 9.632-13.315 5.49-20.49z"/><path d="m152.292 414.5c-4.142-7.174-13.316-9.634-20.49-5.49l-20.802 12.009v-24.019c0-8.284-6.716-15-15-15s-15 6.716-15 15v24.019l-20.801-12.01c-7.176-4.145-16.349-1.685-20.49 5.49-4.142 7.175-1.684 16.349 5.49 20.49l20.801 12.011-20.802 12.01c-7.174 4.142-9.632 13.315-5.49 20.49 2.778 4.812 7.82 7.503 13.004 7.503 2.544 0 5.124-.648 7.486-2.013l20.802-12.009v24.019c0 8.284 6.716 15 15 15s15-6.716 15-15v-24.019l20.801 12.01c2.362 1.364 4.941 2.013 7.486 2.013 5.184 0 10.227-2.691 13.004-7.503 4.142-7.175 1.684-16.349-5.49-20.49l-20.801-12.011 20.802-12.01c7.174-4.141 9.632-13.315 5.49-20.49z"/></g></svg>