<svg id="Layer_1" enable-background="new 0 0 512 512" height="512" viewBox="0 0 512 512" width="512" xmlns="http://www.w3.org/2000/svg"><path d="m410.931 34.423c-18.041 0-35.753 4.877-51.185 13.934-25.626-30.525-63.4-48.357-103.746-48.357s-78.12 17.832-103.746 48.357c-15.433-9.058-33.143-13.934-51.185-13.934-55.729 0-101.069 45.343-101.069 101.077 0 55.73 45.339 101.069 101.069 101.069 18.048 0 35.764-4.879 51.2-13.943 5.404 6.414 11.425 12.322 17.91 17.649l-85.452 85.452c-4.29 4.29-5.573 10.742-3.252 16.347 2.322 5.605 7.791 9.26 13.858 9.26h90.598l-25.04 143.081c-1.128 6.445 2.052 12.878 7.857 15.896 5.809 3.018 12.899 1.922 17.524-2.703l208.868-208.868c4.29-4.29 5.573-10.742 3.251-16.347-2.321-5.605-7.791-9.26-13.858-9.26h-90.597l1.393-7.958c25.224-7.62 47.492-22.331 64.424-42.536 15.432 9.056 33.138 13.93 51.178 13.93 55.729 0 101.069-45.339 101.069-101.069 0-55.734-45.34-101.077-101.069-101.077zm-62.61 268.71-149.696 149.696 19.934-113.91c.764-4.364-.441-8.843-3.291-12.235s-7.054-5.351-11.484-5.351h-72.236l149.695-149.695-19.935 113.909c-.764 4.364.44 8.843 3.291 12.235 2.85 3.392 7.054 5.351 11.484 5.351zm62.61-96.564c-16.372 0-32.354-5.711-45.004-16.081-3.276-2.688-7.536-3.864-11.731-3.234-4.191.627-7.922 3-10.27 6.529-10.771 16.2-25.468 28.884-42.584 37.019l17.634-100.749c1.128-6.445-2.052-12.877-7.857-15.896-2.188-1.138-4.56-1.691-6.913-1.691-3.89 0-7.729 1.511-10.611 4.394l-102.098 102.089c-9.094-7.058-17.072-15.61-23.42-25.163-2.346-3.531-6.077-5.904-10.269-6.533-4.196-.627-8.456.547-11.734 3.234-12.649 10.37-28.633 16.081-45.005 16.081-39.187.001-71.069-31.88-71.069-71.068 0-39.192 31.881-71.077 71.069-71.077 16.372 0 32.355 5.711 45.005 16.081 3.278 2.687 7.539 3.859 11.732 3.234 4.192-.628 7.922-3 10.269-6.53 19.653-29.56 52.522-47.208 87.925-47.208s68.272 17.648 87.926 47.208c2.347 3.53 6.077 5.902 10.27 6.53 4.196.63 8.455-.547 11.731-3.234 12.649-10.37 28.632-16.081 45.004-16.081 39.187 0 71.069 31.885 71.069 71.077 0 39.188-31.882 71.069-71.069 71.069z"/></svg>